<svg xmlns="http://www.w3.org/2000/svg" width="632" height="400" viewBox="0 0 632 400" fill="none" role="img" aria-label="Sample credit card">
  <defs>
    <linearGradient id="cardBg" x1="40" y1="20" x2="600" y2="380" gradientUnits="userSpaceOnUse">
      <stop stop-color="#161D33"/>
      <stop offset="0.55" stop-color="#0B1023"/>
      <stop offset="1" stop-color="#050816"/>
    </linearGradient>
    <linearGradient id="chipGrad" x1="72" y1="100" x2="148" y2="158" gradientUnits="userSpaceOnUse">
      <stop stop-color="#E8C878"/>
      <stop offset="1" stop-color="#B8923A"/>
    </linearGradient>
    <linearGradient id="accent" x1="420" y1="40" x2="580" y2="200" gradientUnits="userSpaceOnUse">
      <stop stop-color="#4F8CFF" stop-opacity="0.35"/>
      <stop offset="1" stop-color="#7C5CFF" stop-opacity="0"/>
    </linearGradient>
  </defs>
  <rect x="8" y="8" width="616" height="384" rx="28" fill="url(#cardBg)" stroke="rgba(255,255,255,0.12)" stroke-width="2"/>
  <circle cx="500" cy="120" r="90" fill="url(#accent)"/>
  <text x="56" y="56" fill="rgba(255,255,255,0.78)" font-family="Arial, Helvetica, sans-serif" font-size="16" font-weight="600" letter-spacing="2">CARDORBIT</text>
  <rect x="56" y="100" width="76" height="58" rx="10" fill="url(#chipGrad)"/>
  <path d="M56 119h76M56 139h76M81 100v58M107 100v58" stroke="rgba(0,0,0,0.18)" stroke-width="1.5"/>
  <g stroke="rgba(255,255,255,0.45)" stroke-width="2" stroke-linecap="round" fill="none" opacity="0.7">
    <path d="M156 116c8 0 14 6 14 14s-6 14-14 14"/>
    <path d="M170 106c12 0 22 10 22 24s-10 24-22 24"/>
    <path d="M184 96c16 0 30 14 30 34s-14 34-30 34"/>
  </g>
  <text x="56" y="230" fill="rgba(255,255,255,0.95)" font-family="Arial, Helvetica, sans-serif" font-size="26" font-weight="600" letter-spacing="3">4242  5678  9012  3456</text>
  <text x="56" y="280" fill="rgba(255,255,255,0.45)" font-family="Arial, Helvetica, sans-serif" font-size="10" letter-spacing="1.5">CARD HOLDER</text>
  <text x="56" y="306" fill="rgba(255,255,255,0.92)" font-family="Arial, Helvetica, sans-serif" font-size="18" font-weight="600" letter-spacing="1">JANE DOE</text>
  <text x="280" y="280" fill="rgba(255,255,255,0.45)" font-family="Arial, Helvetica, sans-serif" font-size="10" letter-spacing="1.5">EXPIRES</text>
  <text x="280" y="306" fill="rgba(255,255,255,0.92)" font-family="Arial, Helvetica, sans-serif" font-size="18" font-weight="600" letter-spacing="1">12/28</text>
  <rect x="480" y="278" width="96" height="44" rx="10" fill="rgba(255,255,255,0.12)"/>
  <text x="500" y="308" fill="rgba(255,255,255,0.9)" font-family="Arial, Helvetica, sans-serif" font-size="20" font-weight="700" letter-spacing="2">VISA</text>
</svg>
